<?xml version="1.0" encoding="utf-8"?>
<!-- Generator: Adobe Illustrator 17.0.0, SVG Export Plug-In . SVG Version: 6.00 Build 0)  -->
<!DOCTYPE svg PUBLIC "-//W3C//DTD SVG 1.1//EN" "http://www.w3.org/Graphics/SVG/1.1/DTD/svg11.dtd">
<svg version="1.1" id="Layer_1" xmlns="http://www.w3.org/2000/svg" xmlns:xlink="http://www.w3.org/1999/xlink" x="0px" y="0px"
	 width="120.985px" height="140.448px" viewBox="0 0 120.985 140.448" enable-background="new 0 0 120.985 140.448"
	 xml:space="preserve">
<g>
	<rect x="24.757" y="23.876" fill="#00A0D2" width="57.237" height="91.46"/>
	<path fill="#F9F9F9" d="M81.459,11.185H25.291c-2.542,0-4.623,2.079-4.623,4.621v109.623c0,2.542,2.081,4.621,4.623,4.621h56.168
		c2.542,0,4.623-2.079,4.623-4.621V15.806C86.082,13.264,84.001,11.185,81.459,11.185z M81.993,115.336H24.757v-91.46h57.237
		V115.336z"/>
	<circle fill="#949AA1" cx="53.375" cy="122.781" r="3.937"/>
	<path fill="#FFFFFF" d="M74.142,46.472c0,0.593-0.174,1.074-0.39,1.074H54.264c-0.215,0-0.39-0.481-0.39-1.074l0,0
		c0-0.593,0.174-1.074,0.39-1.074h19.488C73.967,45.398,74.142,45.879,74.142,46.472L74.142,46.472z"/>
	<path fill="#E09042" d="M57.491,46.472c0,0.593-0.222,1.074-0.496,1.074H32.193c-0.274,0-0.496-0.481-0.496-1.074l0,0
		c0-0.593,0.222-1.074,0.496-1.074h24.802C57.269,45.398,57.491,45.879,57.491,46.472L57.491,46.472z"/>
	<circle fill="#4E5657" cx="54.512" cy="46.522" r="2.98"/>
	<path fill="#EF9AB6" d="M58.418,58.856c0,0.593-0.23,1.074-0.514,1.074H32.211c-0.284,0-0.514-0.481-0.514-1.074l0,0
		c0-0.593,0.23-1.074,0.514-1.074h25.693C58.188,57.782,58.418,58.263,58.418,58.856L58.418,58.856z"/>
	<path fill="#FFFFFF" d="M74.142,58.856c0,0.593-0.26,1.074-0.581,1.074H44.53c-0.321,0-0.581-0.481-0.581-1.074l0,0
		c0-0.593,0.26-1.074,0.581-1.074h29.032C73.882,57.782,74.142,58.263,74.142,58.856L74.142,58.856z"/>
	<circle fill="#4E5657" cx="43.949" cy="58.906" r="2.98"/>
	<path fill="#FFFFFF" d="M74.142,71.474c0,0.593-0.158,1.074-0.353,1.074H56.121c-0.195,0-0.353-0.481-0.353-1.074l0,0
		c0-0.593,0.158-1.074,0.353-1.074h17.668C73.984,70.4,74.142,70.881,74.142,71.474L74.142,71.474z"/>
	<path fill="#90CABA" d="M58.418,71.474c0,0.593-0.23,1.074-0.514,1.074H32.211c-0.284,0-0.514-0.481-0.514-1.074l0,0
		c0-0.593,0.23-1.074,0.514-1.074h25.693C58.188,70.4,58.418,70.881,58.418,71.474L58.418,71.474z"/>
	<circle fill="#4E5657" cx="57.491" cy="71.475" r="2.98"/>
	<path fill="#FFFFFF" d="M74.142,85.16c0,0.593-0.365,1.074-0.816,1.074H32.513c-0.451,0-0.816-0.481-0.816-1.074l0,0
		c0-0.593,0.365-1.074,0.816-1.074h40.812C73.776,84.086,74.142,84.567,74.142,85.16L74.142,85.16z"/>
	<path fill="#EFC430" d="M71.493,85.16c0,0.593-0.343,1.074-0.765,1.074H32.463c-0.423,0-0.765-0.481-0.765-1.074l0,0
		c0-0.593,0.343-1.074,0.765-1.074h38.265C71.151,84.086,71.493,84.567,71.493,85.16L71.493,85.16z"/>
	<circle fill="#4E5657" cx="73.265" cy="85.158" r="2.98"/>
	<g>
		<defs>
			<rect id="SVGID_1_" x="19.544" y="31.827" width="101.441" height="108.621"/>
		</defs>
		<clipPath id="SVGID_2_">
			<use xlink:href="#SVGID_1_"  overflow="visible"/>
		</clipPath>
		<g clip-path="url(#SVGID_2_)">
			<g>
				<g>
					<g>
						<path fill="#FED09E" d="M105.914,161.169c0,0-13.957-25.886-15.414-28.587c-1.456-2.701-6.006-1.202-8.634-6.076
							l-9.773-18.125c0.417-0.972,1.109-1.821,2.041-2.397c2.392-1.479,4.686-0.128,6.067,2.433l4.801,8.903
							c0.135,0.25,0.433,0.335,0.666,0.191c0.233-0.144,0.313-0.464,0.178-0.713L70.031,87.466c-0.965-1.789-0.392-4.077,1.279-5.11
							c1.671-1.033,3.808-0.42,4.773,1.369l9.38,17.396c-0.902-1.672-0.367-3.81,1.195-4.775c1.561-0.965,3.558-0.392,4.46,1.28
							l0.943,1.749c-0.902-1.672-0.367-3.81,1.195-4.775c1.562-0.965,3.558-0.392,4.46,1.28l0.943,1.749
							c-0.902-1.672-0.367-3.81,1.195-4.776c1.562-0.965,3.558-0.393,4.46,1.28l7.481,13.874c2.628,4.874-0.86,8.343,0.597,11.044
							c1.457,2.701,15.414,28.587,15.414,28.587L105.914,161.169z"/>
						<g>
							<path fill="#FFE6CA" d="M72.835,109.755c1.374-0.849,3.223,0.581,4.237,2.462c0.665,1.233-0.361,2.247-1.364,2.867
								L72.835,109.755z"/>
						</g>
					</g>
					<path fill="#FFE6CA" d="M71.499,88.26c0.743,1.378,1.564,1.535,3.269,0.481c1.705-1.054,1.989-1.893,1.246-3.271
						c-1.493-2.769-2.842-3.213-4.267-2.332C70.321,84.018,70.006,85.491,71.499,88.26z"/>
				</g>
			</g>
			<g opacity="0.3">
				<g>
					<path fill="#FFFFFF" d="M69.288,81.627l-6.598-6.003l5.607,7.065L69.288,81.627z M67.406,87.509l-8.154,3.117l8.517-1.667
						L67.406,87.509z M67.611,84.298l-8.517-1.667l8.154,3.117L67.611,84.298z M63.122,97.465l6.598-6.003L68.728,90.4
						L63.122,97.465z M70.634,80.6l1.354-0.388l-2.911-8.732L70.634,80.6z M76.49,81.165l0.991,1.061l5.607-7.065L76.49,81.165z
						 M78.44,83.667l0.363,1.45L86.958,82L78.44,83.667z M73.632,80.042l1.354,0.389l1.557-9.12L73.632,80.042z"/>
				</g>
			</g>
		</g>
	</g>
</g>
</svg>
