<?xml version="1.0" encoding="utf-8"?>
<!-- Generator: Adobe Illustrator 17.0.0, SVG Export Plug-In . SVG Version: 6.00 Build 0)  -->
<!DOCTYPE svg PUBLIC "-//W3C//DTD SVG 1.1//EN" "http://www.w3.org/Graphics/SVG/1.1/DTD/svg11.dtd">
<svg version="1.1" id="Layer_1" xmlns="http://www.w3.org/2000/svg" xmlns:xlink="http://www.w3.org/1999/xlink" x="0px" y="0px"
	 width="264px" height="102.034px" viewBox="0 0 264 102.034" enable-background="new 0 0 264 102.034" xml:space="preserve">
<g>
	<path fill="#FFFFFF" d="M92.649,17.396c0,1.08-0.665,1.955-1.486,1.955H16.876c-0.821,0-1.486-0.875-1.486-1.955l0,0
		c0-1.08,0.665-1.955,1.486-1.955h74.287C91.984,15.441,92.649,16.317,92.649,17.396L92.649,17.396z"/>
	<path fill="#F3BB8F" d="M74.203,17.396c0,1.08-0.506,1.955-1.131,1.955H16.522c-0.625,0-1.131-0.875-1.131-1.955l0,0
		c0-1.08,0.506-1.955,1.131-1.955h56.551C73.697,15.441,74.203,16.317,74.203,17.396L74.203,17.396z"/>
	<path fill="#4E5657" d="M79.627,17.488c0,2.995-2.429,5.423-5.423,5.423c-2.998,0-5.424-2.428-5.424-5.423
		c0-2.993,2.426-5.425,5.424-5.425C77.198,12.063,79.627,14.494,79.627,17.488z"/>
	<path fill="#EF9AB6" d="M64.029,39.939c0,1.08-0.419,1.955-0.935,1.955H16.326c-0.517,0-0.935-0.875-0.935-1.955l0,0
		c0-1.08,0.419-1.955,0.935-1.955h46.768C63.61,37.984,64.029,38.859,64.029,39.939L64.029,39.939z"/>
	<path fill="#FFFFFF" d="M92.649,39.939c0,1.08-0.473,1.955-1.057,1.955H38.748c-0.584,0-1.057-0.875-1.057-1.955l0,0
		c0-1.08,0.473-1.955,1.057-1.955h52.844C92.176,37.984,92.649,38.859,92.649,39.939L92.649,39.939z"/>
	<path fill="#4E5657" d="M43.115,40.03c0,2.995-2.429,5.423-5.423,5.423c-2.998,0-5.424-2.428-5.424-5.423
		c0-2.993,2.426-5.425,5.424-5.425C40.686,34.605,43.115,37.037,43.115,40.03z"/>
	<path fill="#FFFFFF" d="M92.649,62.907c0,1.08-0.656,1.955-1.464,1.955H17.96c-0.809,0-1.464-0.875-1.464-1.955l0,0
		c0-1.08,0.656-1.955,1.464-1.955h73.225C91.994,60.952,92.649,61.827,92.649,62.907L92.649,62.907z"/>
	<path fill="#90CABA" d="M72.833,62.907c0,1.08-0.495,1.955-1.105,1.955H16.495c-0.61,0-1.105-0.875-1.105-1.955l0,0
		c0-1.08,0.495-1.955,1.105-1.955h55.233C72.339,60.952,72.833,61.827,72.833,62.907L72.833,62.907z"/>
	<path fill="#4E5657" d="M79.627,62.908c0,2.995-2.429,5.423-5.423,5.423c-2.998,0-5.424-2.428-5.424-5.423
		c0-2.993,2.426-5.425,5.424-5.425C77.198,57.482,79.627,59.914,79.627,62.908z"/>
	<path fill="#FFFFFF" d="M92.649,87.817c0,1.08-0.665,1.955-1.486,1.955H16.876c-0.821,0-1.486-0.875-1.486-1.955l0,0
		c0-1.08,0.665-1.955,1.486-1.955h74.287C91.984,85.862,92.649,86.738,92.649,87.817L92.649,87.817z"/>
	<path fill="#EFC430" d="M87.828,87.817c0,1.08-0.624,1.955-1.393,1.955H16.784c-0.769,0-1.393-0.875-1.393-1.955l0,0
		c0-1.08,0.624-1.955,1.393-1.955h69.652C87.205,85.862,87.828,86.738,87.828,87.817L87.828,87.817z"/>
	<path fill="#4E5657" d="M96.476,87.815c0,2.995-2.429,5.423-5.423,5.423c-2.998,0-5.424-2.428-5.424-5.423
		c0-2.993,2.426-5.425,5.424-5.425C94.047,82.39,96.476,84.821,96.476,87.815z"/>
	<rect x="102.285" y="9.54" fill="none" width="173.871" height="15.893"/>
	<text transform="matrix(1 0 0 1 102.2856 22.4823)" fill="#F1BA8E" font-family="'SourceSansPro-Light'" font-size="18">Emotional Wellbeing</text>
	<rect x="102.285" y="32.365" fill="none" width="127.333" height="15.333"/>
	<text transform="matrix(1 0 0 1 102.2848 45.3075)" fill="#EF9AB6" font-family="'SourceSansPro-Light'" font-size="18">Culture &amp; Identity</text>
	<text transform="matrix(1 0 0 1 102.2851 69.6172)" fill="#90D1BE" font-family="'SourceSansPro-Light'" font-size="18">Social Life</text>
	<rect x="102.285" y="78.817" fill="none" width="110.077" height="18"/>
	<text transform="matrix(1 0 0 1 102.2851 91.7592)" fill="#EEC432" font-family="'SourceSansPro-Light'" font-size="18">School &amp; Work</text>
</g>
</svg>
