<?xml version="1.0" encoding="utf-8"?>
<!-- Generator: Adobe Illustrator 17.0.0, SVG Export Plug-In . SVG Version: 6.00 Build 0)  -->
<!DOCTYPE svg PUBLIC "-//W3C//DTD SVG 1.1//EN" "http://www.w3.org/Graphics/SVG/1.1/DTD/svg11.dtd">
<svg version="1.1" id="Layer_1" xmlns="http://www.w3.org/2000/svg" xmlns:xlink="http://www.w3.org/1999/xlink" x="0px" y="0px"
	 width="261.963px" height="107.975px" viewBox="0 0 261.963 107.975" enable-background="new 0 0 261.963 107.975"
	 xml:space="preserve">
<path fill="#FFFFFF" d="M89.799,17.485c0,1.08-0.665,1.955-1.486,1.955H14.027c-0.821,0-1.486-0.875-1.486-1.955l0,0
	c0-1.08,0.665-1.955,1.486-1.955h74.287C89.134,15.53,89.799,16.405,89.799,17.485L89.799,17.485z"/>
<path fill="#F3BB8F" d="M71.354,17.485c0,1.08-0.506,1.955-1.131,1.955H13.672c-0.625,0-1.131-0.875-1.131-1.955l0,0
	c0-1.08,0.506-1.955,1.131-1.955h56.551C70.847,15.53,71.354,16.405,71.354,17.485L71.354,17.485z"/>
<path fill="#4E5657" d="M76.777,17.576c0,2.995-2.429,5.423-5.423,5.423c-2.998,0-5.424-2.428-5.424-5.423
	c0-2.993,2.426-5.425,5.424-5.425C74.348,12.151,76.777,14.583,76.777,17.576z"/>
<path fill="#EF9AB6" d="M61.179,40.028c0,1.08-0.419,1.955-0.935,1.955H13.476c-0.517,0-0.935-0.875-0.935-1.955l0,0
	c0-1.08,0.419-1.955,0.935-1.955h46.768C60.76,38.072,61.179,38.948,61.179,40.028L61.179,40.028z"/>
<path fill="#FFFFFF" d="M89.799,40.028c0,1.08-0.473,1.955-1.057,1.955H35.899c-0.584,0-1.057-0.875-1.057-1.955l0,0
	c0-1.08,0.473-1.955,1.057-1.955h52.844C89.326,38.072,89.799,38.948,89.799,40.028L89.799,40.028z"/>
<path fill="#4E5657" d="M40.265,40.119c0,2.995-2.429,5.423-5.423,5.423c-2.998,0-5.424-2.428-5.424-5.423
	c0-2.993,2.426-5.425,5.424-5.425C37.836,34.694,40.265,37.125,40.265,40.119z"/>
<path fill="#FFFFFF" d="M89.799,62.995c0,1.08-0.656,1.955-1.464,1.955H15.11c-0.809,0-1.464-0.875-1.464-1.955l0,0
	c0-1.08,0.656-1.955,1.464-1.955h73.225C89.144,61.04,89.799,61.916,89.799,62.995L89.799,62.995z"/>
<path fill="#90CABA" d="M69.984,62.995c0,1.08-0.495,1.955-1.105,1.955H13.646c-0.61,0-1.105-0.875-1.105-1.955l0,0
	c0-1.08,0.495-1.955,1.105-1.955h55.233C69.489,61.04,69.984,61.916,69.984,62.995L69.984,62.995z"/>
<path fill="#4E5657" d="M76.777,62.996c0,2.995-2.429,5.423-5.423,5.423c-2.998,0-5.424-2.428-5.424-5.423
	c0-2.993,2.426-5.425,5.424-5.425C74.348,57.571,76.777,60.003,76.777,62.996z"/>
<path fill="#FFFFFF" d="M89.8,87.906c0,1.08-0.665,1.955-1.486,1.955H14.027c-0.821,0-1.486-0.875-1.486-1.955l0,0
	c0-1.08,0.665-1.955,1.486-1.955h74.287C89.134,85.951,89.8,86.826,89.8,87.906L89.8,87.906z"/>
<path fill="#EFC430" d="M84.979,87.906c0,1.08-0.624,1.955-1.393,1.955H13.934c-0.769,0-1.393-0.875-1.393-1.955l0,0
	c0-1.08,0.624-1.955,1.393-1.955h69.652C84.355,85.951,84.979,86.826,84.979,87.906L84.979,87.906z"/>
<path fill="#4E5657" d="M93.626,87.903c0,2.995-2.429,5.423-5.423,5.423c-2.998,0-5.424-2.428-5.424-5.423
	c0-2.993,2.426-5.425,5.424-5.425C91.197,82.478,93.626,84.91,93.626,87.903z"/>
<rect x="99.435" y="9.629" fill="none" width="173.871" height="15.893"/>
<text transform="matrix(1 0 0 1 99.4359 21.8524)" fill="#F1BA8E" font-family="'SourceSansPro-Light'" font-size="15.5">Emotional Wellbeing</text>
<rect x="99.435" y="32.454" fill="none" width="127.333" height="15.333"/>
<text transform="matrix(1 0 0 1 99.4351 45.3958)" fill="#EF9AB6" font-family="'SourceSansPro-Light'" font-size="18">Culture &amp; Identity</text>
<text transform="matrix(1 0 0 1 99.4354 69.706)" fill="#90D1BE" font-family="'SourceSansPro-Light'" font-size="18">Social Life</text>
<rect x="99.435" y="78.906" fill="none" width="110.077" height="18"/>
<text transform="matrix(1 0 0 1 99.4354 91.848)" fill="#EEC432" font-family="'SourceSansPro-Light'" font-size="18">School &amp; Work</text>
</svg>
