<?xml version="1.0" encoding="utf-8"?>
<!-- Generator: Adobe Illustrator 17.0.0, SVG Export Plug-In . SVG Version: 6.00 Build 0)  -->
<!DOCTYPE svg PUBLIC "-//W3C//DTD SVG 1.1//EN" "http://www.w3.org/Graphics/SVG/1.1/DTD/svg11.dtd">
<svg version="1.1" id="Layer_1" xmlns="http://www.w3.org/2000/svg" xmlns:xlink="http://www.w3.org/1999/xlink" x="0px" y="0px"
	 width="232.555px" height="166.102px" viewBox="0 0 232.555 166.102" enable-background="new 0 0 232.555 166.102"
	 xml:space="preserve">
<g>
	<g>
		<path fill="#24313D" d="M191.675,15.817H44.381c-1.725,0-3.137,1.411-3.137,3.136v90.049h153.567V18.953
			C194.812,17.228,193.399,15.817,191.675,15.817z M190.106,103.121H45.95v-80.9h144.156V103.121z"/>
		<path fill="#F9F9F9" d="M41.245,109.002v10.194c0,1.725,1.412,3.137,3.137,3.137h147.293c1.725,0,3.137-1.412,3.137-3.137v-10.194
			H41.245z"/>
		<circle fill="#F9F9F9" cx="118.029" cy="19.023" r="0.858"/>
		<rect x="45.95" y="22.22" fill="#E09042" width="144.156" height="80.9"/>
		<path fill="#FFFFFF" d="M75.965,31.366v68.667h80.495V31.366H75.965z M145.012,54.316V43.582h9.122v-0.37h-9.122v-9.624h9.226
			v32.465c-0.098-0.096-0.208-0.176-0.315-0.261h0.211v-0.37h-0.783c-0.538-0.286-1.142-0.463-1.792-0.463s-1.254,0.177-1.792,0.463
			h-1.49l-3.263-2.065v-8.67h9.122v-0.37H145.012z M148.861,65.792h0.333c-0.049,0.039-0.097,0.078-0.144,0.119L148.861,65.792z
			 M151.559,66.44c1.31,0,2.376,1.065,2.376,2.376s-1.065,2.376-2.376,2.376c-1.31,0-2.376-1.065-2.376-2.376
			S150.248,66.44,151.559,66.44z M145.012,65.108l0.495,0.313h-0.495V65.108z M132.57,57.796c0-0.781,0.383-1.468,0.967-1.902v3.805
			C132.954,59.265,132.57,58.577,132.57,57.796z M133.907,55.67c0.315-0.155,0.665-0.249,1.039-0.249
			c1.31,0,2.376,1.065,2.376,2.376s-1.065,2.376-2.376,2.376c-0.374,0-0.724-0.095-1.039-0.249V55.67z M137.206,54.687h7.435v8.436
			l-6.128-3.876c0.183-0.448,0.288-0.937,0.288-1.45C138.802,56.517,138.169,55.388,137.206,54.687z M133.907,33.587h10.735v9.624
			h-10.735V33.587z M144.642,43.582v10.735h-8.062c-0.497-0.235-1.048-0.377-1.634-0.377c-0.362,0-0.706,0.067-1.039,0.161V43.582
			H144.642z M122.801,33.587h10.735v9.624h-10.735V33.587z M122.801,43.582h10.735v10.634c-0.077,0.03-0.15,0.066-0.225,0.101
			h-10.51V43.582z M122.801,54.687h9.884c-0.962,0.702-1.596,1.83-1.596,3.109c0,0.666,0.185,1.284,0.484,1.832l-8.098,5.793h-0.674
			V54.687z M122.958,65.792l-0.156,0.112v-0.112H122.958z M120.383,65.792h2.049v0.377l-1.068,0.764
			C121.113,66.489,120.781,66.104,120.383,65.792z M111.696,62.773l2.623,2.648h-2.623V62.773z M118.018,66.44
			c1.31,0,2.376,1.065,2.376,2.376s-1.065,2.376-2.376,2.376s-2.376-1.065-2.376-2.376S116.708,66.44,118.018,66.44z
			 M111.696,33.587h10.735v9.624h-10.735V33.587z M111.696,43.582h10.735v10.735h-10.735V43.582z M122.431,54.687v10.735h-2.622
			c-0.537-0.286-1.142-0.463-1.792-0.463c-0.603,0-1.168,0.152-1.676,0.399l-4.645-4.689v-5.982H122.431z M111.326,60.295
			l-5.556-5.609h5.556V60.295z M100.591,33.587h10.735v9.624h-10.735V33.587z M111.326,43.582v10.735h-5.923l-1.072-1.082
			c0.247-0.508,0.396-1.069,0.396-1.67c0-2.126-1.73-3.856-3.856-3.856c-0.096,0-0.186,0.021-0.28,0.028v-4.154H111.326z
			 M98.496,51.564c0-1.083,0.733-1.989,1.726-2.274v4.548C99.229,53.553,98.496,52.647,98.496,51.564z M100.591,49.216
			c0.093-0.011,0.184-0.028,0.28-0.028c1.31,0,2.376,1.065,2.376,2.376c0,1.31-1.065,2.376-2.376,2.376
			c-0.096,0-0.187-0.017-0.28-0.028V49.216z M89.486,33.587h10.735v9.624H89.486V33.587z M89.486,43.582h10.735v4.192
			c-1.816,0.311-3.206,1.887-3.206,3.791c0,0.635,0.17,1.226,0.442,1.755l-0.689,0.998h-7.282L89.486,43.582L89.486,43.582z
			 M96.513,54.687l-7.026,10.169V54.687H96.513z M89.116,33.587v9.624H78.289v0.37h10.827v10.735H78.289v0.37h10.827v10.705
			l-0.021,0.03H78.289v0.37H88.84l-1.655,2.394c-0.671-0.566-1.526-0.92-2.469-0.92c-2.126,0-3.856,1.73-3.856,3.856
			c0,1.056,0.428,2.013,1.118,2.71l-2.624,2.694h-1.065v0.37h0.704l-0.808,0.829V33.587L89.116,33.587L89.116,33.587z M82.34,71.123
			c0-1.31,1.065-2.376,2.376-2.376c1.31,0,2.376,1.065,2.376,2.376s-1.065,2.376-2.376,2.376
			C83.406,73.499,82.34,72.433,82.34,71.123z M89.116,87.632H78.289v0.37h10.827v9.81h-10.93V79.847l2.874-2.95h8.056V87.632z
			 M81.42,76.527l1.801-1.849c0.46,0.195,0.965,0.302,1.495,0.302c2.126,0,3.856-1.73,3.856-3.856c0-0.623-0.162-1.203-0.426-1.724
			l0.969-1.403v8.529L81.42,76.527L81.42,76.527z M100.221,97.812H89.486v-9.81h10.735V97.812z M100.221,87.632H89.486V76.897
			h10.735V87.632z M100.221,76.527H89.486v-9.065l1.153-1.669h9.581V76.527z M90.896,65.422l7.417-10.735h0.315
			c0.466,0.335,1.006,0.567,1.594,0.668v10.067H90.896z M111.326,97.812h-10.735v-9.81h10.735V97.812z M111.326,87.632h-10.735
			V76.897h10.735V87.632z M111.326,76.527h-10.735V65.792h10.735V76.527z M100.591,65.422V55.392
			c0.094,0.007,0.184,0.028,0.28,0.028c0.84,0,1.611-0.277,2.245-0.734h0.57l7.64,7.713v3.022L100.591,65.422z M122.431,97.812
			h-10.735v-9.81h10.735V97.812z M122.431,87.632h-10.735V76.897h10.735V87.632z M111.696,76.527V65.792h2.99l0.465,0.469
			c-0.609,0.682-0.99,1.571-0.99,2.554c0,2.126,1.73,3.856,3.856,3.856c2.126,0,3.856-1.73,3.856-3.856
			c0-0.137-0.027-0.266-0.04-0.398l0.597-0.427v8.537L111.696,76.527z M133.536,97.812h-10.735v-9.81h10.735V97.812z
			 M133.536,87.632h-10.735V76.897h10.735V87.632z M133.536,76.527h-10.735v-8.803l2.702-1.932h8.033V76.527z M126.021,65.422
			l6.501-4.65c0.306,0.249,0.642,0.458,1.014,0.606v4.044H126.021z M144.642,97.812h-10.735v-9.81h10.735V97.812z M144.642,87.632
			h-10.735V76.897h10.735V87.632z M144.642,76.527h-10.735V65.792h10.735V76.527z M133.907,65.422v-3.93
			c0.332,0.094,0.677,0.161,1.039,0.161c1.081,0,2.056-0.449,2.757-1.169l6.939,4.391v0.547H133.907z M145.012,97.812v-9.81h9.122
			v-0.37h-9.122V76.897h9.122v-0.37h-9.122V65.792h1.08l2.04,1.29c-0.266,0.523-0.43,1.107-0.43,1.733
			c0,2.126,1.73,3.856,3.856,3.856c1.042,0,1.985-0.419,2.68-1.093v26.233H145.012z"/>
		<path fill="#F9F9F9" d="M142.73,138.18H93.327c-0.863,0-1.568,0.625-1.568,1.389v1.388h1.568h49.403h1.568v-1.388
			C144.298,138.805,143.592,138.18,142.73,138.18z"/>
		<polygon fill="#F6F6F7" points="101.726,122.333 98.06,138.18 137.997,138.18 134.332,122.333 		"/>
		<polygon fill="#F2F2F3" points="134.332,122.333 101.726,122.333 117.574,138.18 137.997,138.18 		"/>
		<path opacity="0.1" fill="#FFFFFF" d="M169.33,15.817H44.381c-1.725,0-3.137,1.411-3.137,3.136v90.049h34.9L169.33,15.817z"/>
	</g>
	<g>
		<rect x="129.417" y="84.907" fill="#E09042" width="89.34" height="56.582"/>
		<path fill="#FFFFFF" d="M149.324,92.468v42.462H199.1V92.468H149.324z M192.021,106.66v-6.638h5.641v-0.229h-5.641v-5.951h5.705
			v20.076c-0.06-0.059-0.129-0.109-0.195-0.161h0.13v-0.229h-0.484c-0.333-0.177-0.706-0.286-1.108-0.286
			c-0.402,0-0.776,0.109-1.108,0.286h-0.922l-2.018-1.277v-5.361h5.641v-0.229H192.021z M194.401,113.756h0.206
			c-0.03,0.024-0.06,0.048-0.089,0.074L194.401,113.756z M196.069,114.157c0.81,0,1.469,0.659,1.469,1.469s-0.659,1.469-1.469,1.469
			s-1.469-0.659-1.469-1.469S195.259,114.157,196.069,114.157z M192.021,113.334l0.306,0.194h-0.306V113.334z M184.328,108.812
			c0-0.483,0.237-0.908,0.598-1.176v2.353C184.565,109.72,184.328,109.295,184.328,108.812z M185.154,107.497
			c0.195-0.096,0.411-0.154,0.642-0.154c0.81,0,1.469,0.659,1.469,1.469c0,0.81-0.659,1.469-1.469,1.469
			c-0.231,0-0.448-0.059-0.642-0.154V107.497z M187.194,106.889h4.598v5.217l-3.789-2.397c0.113-0.277,0.178-0.579,0.178-0.896
			C188.181,108.021,187.789,107.323,187.194,106.889z M185.154,93.842h6.638v5.951h-6.638V93.842z M191.792,100.022v6.638h-4.986
			c-0.308-0.145-0.648-0.233-1.01-0.233c-0.224,0-0.437,0.041-0.642,0.099v-6.505H191.792z M178.287,93.842h6.638v5.951h-6.638
			V93.842z M178.287,100.022h6.638v6.575c-0.048,0.019-0.093,0.041-0.139,0.063h-6.499V100.022z M178.287,106.889h6.112
			c-0.595,0.434-0.987,1.132-0.987,1.923c0,0.412,0.114,0.794,0.299,1.133l-5.007,3.582h-0.417V106.889z M178.383,113.756
			l-0.097,0.069v-0.069H178.383z M176.791,113.756h1.267v0.233l-0.661,0.472C177.243,114.188,177.037,113.95,176.791,113.756z
			 M171.42,111.89l1.622,1.638h-1.622V111.89z M175.329,114.157c0.81,0,1.469,0.659,1.469,1.469s-0.659,1.469-1.469,1.469
			s-1.469-0.659-1.469-1.469S174.519,114.157,175.329,114.157z M171.42,93.842h6.638v5.951h-6.638V93.842z M171.42,100.022h6.638
			v6.638h-6.638V100.022z M178.058,106.889v6.638h-1.621c-0.332-0.177-0.706-0.286-1.108-0.286c-0.373,0-0.722,0.094-1.036,0.247
			l-2.872-2.9v-3.699H178.058z M171.191,110.358l-3.435-3.468h3.435V110.358z M164.553,93.842h6.638v5.951h-6.638V93.842z
			 M171.191,100.022v6.638h-3.662l-0.663-0.669c0.152-0.314,0.245-0.661,0.245-1.033c0-1.315-1.07-2.385-2.385-2.385
			c-0.059,0-0.115,0.013-0.173,0.017v-2.569H171.191z M163.257,104.958c0-0.67,0.453-1.23,1.067-1.406v2.812
			C163.71,106.188,163.257,105.628,163.257,104.958z M164.553,103.507c0.057-0.007,0.114-0.017,0.173-0.017
			c0.81,0,1.469,0.659,1.469,1.469c0,0.81-0.659,1.469-1.469,1.469c-0.059,0-0.116-0.011-0.173-0.017V103.507z M157.685,93.842
			h6.638v5.951h-6.638V93.842z M157.685,100.022h6.638v2.592c-1.123,0.192-1.983,1.167-1.983,2.344c0,0.393,0.105,0.758,0.273,1.085
			l-0.426,0.617h-4.503L157.685,100.022L157.685,100.022z M162.03,106.889l-4.345,6.288v-6.288H162.03z M157.457,93.842v5.951
			h-6.695v0.229h6.695v6.638h-6.695v0.229h6.695v6.62l-0.013,0.018h-6.682v0.229h6.524l-1.023,1.481
			c-0.415-0.35-0.944-0.569-1.527-0.569c-1.315,0-2.385,1.07-2.385,2.385c0,0.653,0.265,1.245,0.691,1.676l-1.622,1.666h-0.658
			v0.229h0.435l-0.499,0.513V93.842L157.457,93.842L157.457,93.842z M153.267,117.053c0-0.81,0.659-1.469,1.469-1.469
			s1.469,0.659,1.469,1.469s-0.659,1.469-1.469,1.469S153.267,117.863,153.267,117.053z M157.457,127.262h-6.695v0.229h6.695v6.066
			h-6.759v-11.109l1.777-1.824h4.982V127.262z M152.698,120.395l1.114-1.144c0.284,0.12,0.597,0.187,0.924,0.187
			c1.315,0,2.385-1.07,2.385-2.385c0-0.385-0.1-0.744-0.263-1.066l0.599-0.868v5.274L152.698,120.395L152.698,120.395z
			 M164.324,133.557h-6.638v-6.066h6.638V133.557z M164.324,127.262h-6.638v-6.638h6.638V127.262z M164.324,120.395h-6.638v-5.606
			l0.713-1.032h5.925V120.395z M158.557,113.528l4.586-6.638h0.195c0.288,0.207,0.622,0.351,0.986,0.413v6.225H158.557z
			 M171.191,133.557h-6.638v-6.066h6.638V133.557z M171.191,127.262h-6.638v-6.638h6.638V127.262z M171.191,120.395h-6.638v-6.638
			h6.638V120.395z M164.553,113.528v-6.202c0.058,0.004,0.114,0.017,0.173,0.017c0.519,0,0.996-0.171,1.388-0.454h0.353l4.725,4.769
			v1.869L164.553,113.528z M178.058,133.557h-6.638v-6.066h6.638V133.557z M178.058,127.262h-6.638v-6.638h6.638V127.262z
			 M171.42,120.395v-6.638h1.849l0.288,0.29c-0.376,0.422-0.612,0.971-0.612,1.579c0,1.315,1.07,2.385,2.385,2.385
			s2.385-1.07,2.385-2.385c0-0.085-0.016-0.164-0.025-0.246l0.369-0.264v5.279L171.42,120.395z M184.925,133.557h-6.638v-6.066
			h6.638V133.557z M184.925,127.262h-6.638v-6.638h6.638V127.262z M184.925,120.395h-6.638v-5.443l1.671-1.195h4.968V120.395z
			 M180.278,113.528l4.02-2.875c0.189,0.154,0.397,0.283,0.627,0.374v2.501H180.278z M191.792,133.557h-6.638v-6.066h6.638V133.557z
			 M191.792,127.262h-6.638v-6.638h6.638V127.262z M191.792,120.395h-6.638v-6.638h6.638V120.395z M185.154,113.528v-2.43
			c0.206,0.058,0.418,0.099,0.642,0.099c0.668,0,1.271-0.278,1.705-0.723l4.291,2.715v0.338H185.154z M192.021,133.557v-6.066h5.641
			v-0.229h-5.641v-6.638h5.641v-0.229h-5.641v-6.638h0.668l1.261,0.798c-0.164,0.324-0.266,0.684-0.266,1.072
			c0,1.315,1.07,2.385,2.385,2.385c0.644,0,1.227-0.259,1.657-0.676v16.222H192.021z"/>
		<path fill="#24313D" d="M218.558,81.557h-88.943c-1.31,0-2.382,1.072-2.382,2.382v60.157h93.708V83.939
			C220.941,82.629,219.869,81.557,218.558,81.557z M218.757,141.489h-89.34V84.907h89.34V141.489z"/>
		<g>
			<path fill="#F9F9F9" d="M232.555,147.545c0,0.491-0.402,0.894-0.893,0.894h-115.15c-0.491,0-0.894-0.402-0.894-0.894v-2.556
				c0-0.491,0.402-0.893,0.894-0.893h115.15c0.491,0,0.893,0.402,0.893,0.893V147.545z"/>
		</g>
		<circle fill="#F9F9F9" cx="174.087" cy="83.216" r="0.583"/>
		<path fill="#EDEDEF" d="M165.103,144.096v0.694c0,0.491,0.403,0.893,0.893,0.893h16.181c0.491,0,0.894-0.402,0.894-0.893v-0.694
			H165.103z"/>
		<path opacity="0.1" fill="#FFFFFF" d="M206.277,81.557h-76.662c-1.31,0-2.382,1.072-2.382,2.382v60.157h16.506L206.277,81.557z"/>
	</g>
	<g>
		<rect x="12.738" y="74.671" fill="#E09042" width="49.065" height="63.257"/>
		<path fill="#FFFFFF" d="M16.993,81.01v34.968h40.992V81.01H16.993z M52.155,92.698v-5.467H56.8v-0.189h-4.645v-4.901h4.698v16.533
			c-0.05-0.049-0.106-0.09-0.161-0.133H56.8v-0.189h-0.399c-0.274-0.146-0.581-0.236-0.913-0.236s-0.639,0.09-0.913,0.236h-0.759
			l-1.662-1.051v-4.415H56.8v-0.189H52.155z M54.115,98.542h0.17c-0.025,0.02-0.049,0.04-0.074,0.061L54.115,98.542z M55.489,98.871
			c0.667,0,1.21,0.543,1.21,1.21c0,0.667-0.543,1.21-1.21,1.21c-0.667,0-1.21-0.543-1.21-1.21
			C54.279,99.414,54.822,98.871,55.489,98.871z M52.155,98.194l0.252,0.159h-0.252V98.194z M45.819,94.47
			c0-0.398,0.195-0.748,0.492-0.969v1.937C46.014,95.218,45.819,94.868,45.819,94.47z M46.5,93.387
			c0.161-0.079,0.339-0.127,0.529-0.127c0.667,0,1.21,0.543,1.21,1.21s-0.543,1.21-1.21,1.21c-0.19,0-0.369-0.048-0.529-0.127
			V93.387z M48.18,92.886h3.786v4.296l-3.121-1.974c0.093-0.228,0.147-0.477,0.147-0.738C48.993,93.818,48.67,93.244,48.18,92.886z
			 M46.5,82.141h5.467v4.901H46.5V82.141z M51.966,87.231v5.467h-4.106c-0.253-0.12-0.533-0.192-0.832-0.192
			c-0.184,0-0.36,0.034-0.529,0.082v-5.357H51.966z M40.844,82.141h5.467v4.901h-5.467V82.141z M40.844,87.231h5.467v5.415
			c-0.039,0.015-0.077,0.034-0.115,0.052h-5.352V87.231z M40.844,92.886h5.033c-0.49,0.357-0.813,0.932-0.813,1.583
			c0,0.339,0.094,0.654,0.247,0.933l-4.124,2.95h-0.343V92.886z M40.924,98.542l-0.08,0.057v-0.057H40.924z M39.613,98.542h1.044
			v0.192l-0.544,0.389C39.984,98.897,39.816,98.701,39.613,98.542z M35.189,97.004l1.336,1.349h-1.336V97.004z M38.408,98.871
			c0.667,0,1.21,0.543,1.21,1.21c0,0.667-0.543,1.21-1.21,1.21s-1.21-0.543-1.21-1.21C37.199,99.414,37.741,98.871,38.408,98.871z
			 M35.189,82.141h5.467v4.901h-5.467V82.141z M35.189,87.231h5.467v5.467h-5.467V87.231z M40.656,92.886v5.467h-1.335
			c-0.274-0.146-0.581-0.236-0.912-0.236c-0.307,0-0.595,0.077-0.854,0.203l-2.365-2.388v-3.046H40.656z M35.001,95.743
			l-2.829-2.856h2.829V95.743z M29.534,82.141h5.467v4.901h-5.467V82.141z M35.001,87.231v5.467h-3.016l-0.546-0.551
			c0.126-0.259,0.202-0.544,0.202-0.851c0-1.083-0.881-1.964-1.964-1.964c-0.049,0-0.095,0.011-0.143,0.014v-2.115H35.001z
			 M28.467,91.296c0-0.552,0.373-1.013,0.879-1.158v2.316C28.84,92.309,28.467,91.848,28.467,91.296z M29.534,90.101
			c0.047-0.006,0.094-0.014,0.143-0.014c0.667,0,1.21,0.543,1.21,1.21s-0.543,1.21-1.21,1.21c-0.049,0-0.095-0.009-0.143-0.014
			V90.101z M23.879,82.141h5.467v4.901h-5.467L23.879,82.141z M23.879,87.231h5.467v2.135c-0.925,0.158-1.633,0.961-1.633,1.93
			c0,0.323,0.086,0.624,0.225,0.894l-0.351,0.508h-3.708L23.879,87.231L23.879,87.231z M27.457,92.886l-3.578,5.179v-5.179H27.457z
			 M23.69,82.141v4.901h-5.513v0.189h5.513v5.467h-5.513v0.189h5.513v5.452l-0.011,0.015h-5.503v0.189h5.373l-0.843,1.219
			c-0.342-0.288-0.777-0.468-1.257-0.468c-1.083,0-1.964,0.881-1.964,1.964c0,0.538,0.218,1.025,0.569,1.38l-1.336,1.372h-0.542
			v0.189h0.359l-0.411,0.422V82.141H23.69L23.69,82.141z M20.24,101.256c0-0.667,0.543-1.21,1.21-1.21c0.667,0,1.21,0.543,1.21,1.21
			s-0.543,1.21-1.21,1.21C20.782,102.466,20.24,101.924,20.24,101.256z M23.69,109.664h-5.513v0.189h5.513v4.995h-5.566v-9.148
			l1.464-1.502h4.103V109.664z M19.771,104.008l0.917-0.942c0.234,0.099,0.491,0.154,0.761,0.154c1.083,0,1.964-0.881,1.964-1.964
			c0-0.317-0.083-0.613-0.217-0.878l0.494-0.714v4.344L19.771,104.008L19.771,104.008z M29.345,114.848h-5.467v-4.995h5.467V114.848
			z M29.345,109.664h-5.467v-5.467h5.467V109.664z M29.345,104.008h-5.467v-4.617l0.587-0.85h4.879V104.008z M24.596,98.353
			l3.777-5.467h0.16c0.237,0.171,0.512,0.289,0.812,0.34v5.127H24.596z M35.001,114.848h-5.467v-4.995h5.467V114.848z
			 M35.001,109.664h-5.467v-5.467h5.467V109.664z M35.001,104.008h-5.467v-5.467h5.467V104.008z M29.534,98.353v-5.107
			c0.048,0.003,0.094,0.014,0.143,0.014c0.428,0,0.82-0.141,1.143-0.374h0.29l3.891,3.928v1.539H29.534z M40.656,114.848h-5.467
			v-4.995h5.467V114.848z M40.656,109.664h-5.467v-5.467h5.467V109.664z M35.189,104.008v-5.467h1.523l0.237,0.239
			c-0.31,0.347-0.504,0.8-0.504,1.301c0,1.083,0.881,1.964,1.964,1.964s1.964-0.881,1.964-1.964c0-0.07-0.014-0.135-0.02-0.203
			l0.304-0.218v4.347L35.189,104.008z M46.311,114.848h-5.467v-4.995h5.467V114.848z M46.311,109.664h-5.467v-5.467h5.467V109.664z
			 M46.311,104.008h-5.467v-4.483l1.376-0.984h4.091V104.008z M42.484,98.353l3.311-2.368c0.156,0.127,0.327,0.233,0.517,0.308v2.06
			H42.484z M51.966,114.848H46.5v-4.995h5.467V114.848z M51.966,109.664H46.5v-5.467h5.467V109.664z M51.966,104.008H46.5v-5.467
			h5.467V104.008z M46.5,98.353v-2.001c0.169,0.048,0.345,0.082,0.529,0.082c0.55,0,1.047-0.229,1.404-0.595l3.534,2.236v0.279H46.5
			z M52.155,114.848v-4.995H56.8v-0.189h-4.645v-5.467H56.8v-0.189h-4.645v-5.467h0.55l1.039,0.657
			c-0.135,0.267-0.219,0.564-0.219,0.883c0,1.083,0.881,1.964,1.964,1.964c0.53,0,1.011-0.213,1.365-0.557v13.359H52.155z"/>
		<path fill="#F9F9F9" d="M63.399,66.623H11.142c-1.172,0-2.13,0.958-2.13,2.131v75.299c0,1.172,0.958,2.131,2.13,2.131h52.257
			c1.172,0,2.13-0.959,2.13-2.131V68.754C65.53,67.582,64.571,66.623,63.399,66.623z M61.803,137.928H12.738V74.671h49.065V137.928z
			"/>
		<circle fill="#EDEDEF" cx="34.17" cy="70.993" r="0.535"/>
		<g>
			<path fill="#EDEDEF" d="M40.907,70.995c0,0.23-0.254,0.418-0.565,0.418h-3.93c-0.311,0-0.565-0.188-0.565-0.418
				s0.254-0.418,0.565-0.418h3.93C40.652,70.576,40.907,70.765,40.907,70.995z"/>
		</g>
		<circle fill="#EDEDEF" cx="37.271" cy="142.034" r="1.815"/>
		<path opacity="0.1" fill="#FFFFFF" d="M55.82,66.623H11.142c-1.172,0-2.13,0.958-2.13,2.131v75.299
			c0,1.172,0.958,2.131,2.13,2.131h7.815L55.82,66.623z"/>
	</g>
	<g>
		<rect x="50.859" y="117.311" fill="#E09042" width="19.673" height="31.436"/>
		<path fill="#FFFFFF" d="M51.289,123.152v15.884h18.62v-15.884H51.289z M67.261,128.461v-2.483h2.11v-0.086h-2.11v-2.226h2.134
			v7.51c-0.023-0.022-0.048-0.041-0.073-0.06h0.049v-0.086H69.19c-0.125-0.066-0.264-0.107-0.415-0.107
			c-0.151,0-0.29,0.041-0.415,0.107h-0.345l-0.755-0.478v-2.006h2.11v-0.086H67.261z M68.152,131.115h0.077
			c-0.011,0.009-0.022,0.018-0.033,0.028L68.152,131.115z M68.776,131.265c0.303,0,0.55,0.246,0.55,0.55
			c0,0.303-0.246,0.55-0.55,0.55s-0.55-0.246-0.55-0.55C68.226,131.512,68.473,131.265,68.776,131.265z M67.261,130.957l0.114,0.072
			h-0.114V130.957z M64.383,129.266c0-0.181,0.089-0.34,0.224-0.44v0.88C64.472,129.605,64.383,129.446,64.383,129.266z
			 M64.693,128.774c0.073-0.036,0.154-0.058,0.24-0.058c0.303,0,0.55,0.246,0.55,0.55c0,0.303-0.246,0.55-0.55,0.55
			c-0.086,0-0.167-0.022-0.24-0.058V128.774z M65.456,128.546h1.72v1.951l-1.417-0.897c0.042-0.104,0.067-0.217,0.067-0.335
			C65.825,128.97,65.679,128.709,65.456,128.546z M64.693,123.666h2.483v2.226h-2.483V123.666z M67.176,125.978v2.483h-1.865
			c-0.115-0.054-0.242-0.087-0.378-0.087c-0.084,0-0.163,0.015-0.24,0.037v-2.433H67.176z M62.124,123.666h2.483v2.226h-2.483
			V123.666z M62.124,125.978h2.483v2.46c-0.018,0.007-0.035,0.015-0.052,0.023h-2.431V125.978z M62.124,128.546h2.286
			c-0.223,0.162-0.369,0.423-0.369,0.719c0,0.154,0.043,0.297,0.112,0.424l-1.873,1.34h-0.156V128.546z M62.16,131.115l-0.036,0.026
			v-0.026H62.16z M61.564,131.115h0.474v0.087l-0.247,0.177C61.733,131.277,61.656,131.188,61.564,131.115z M59.555,130.417
			l0.607,0.613h-0.607V130.417z M61.017,131.265c0.303,0,0.55,0.246,0.55,0.55c0,0.303-0.246,0.55-0.55,0.55
			c-0.303,0-0.55-0.246-0.55-0.55C60.468,131.512,60.714,131.265,61.017,131.265z M59.555,123.666h2.483v2.226h-2.483V123.666z
			 M59.555,125.978h2.483v2.483h-2.483V125.978z M62.038,128.546v2.483h-0.606c-0.124-0.066-0.264-0.107-0.414-0.107
			c-0.14,0-0.27,0.035-0.388,0.092l-1.074-1.085v-1.384H62.038z M59.469,129.844l-1.285-1.297h1.285V129.844z M56.986,123.666h2.483
			v2.226h-2.483V123.666z M59.469,125.978v2.483h-1.37l-0.248-0.25c0.057-0.117,0.092-0.247,0.092-0.386
			c0-0.492-0.4-0.892-0.892-0.892c-0.022,0-0.043,0.005-0.065,0.007v-0.961L59.469,125.978z M56.501,127.824
			c0-0.251,0.17-0.46,0.399-0.526v1.052C56.671,128.284,56.501,128.075,56.501,127.824z M56.986,127.281
			c0.021-0.003,0.043-0.007,0.065-0.007c0.303,0,0.55,0.246,0.55,0.55c0,0.303-0.246,0.55-0.55,0.55
			c-0.022,0-0.043-0.004-0.065-0.007V127.281z M54.417,123.666H56.9v2.226h-2.483V123.666z M54.417,125.978H56.9v0.97
			c-0.42,0.072-0.742,0.437-0.742,0.877c0,0.147,0.039,0.284,0.102,0.406l-0.159,0.231h-1.684L54.417,125.978L54.417,125.978z
			 M56.043,128.546l-1.625,2.352v-2.352H56.043z M54.332,123.666v2.226h-2.504v0.086h2.504v2.483h-2.504v0.086h2.504v2.476
			l-0.005,0.007h-2.5v0.086h2.441l-0.383,0.554c-0.155-0.131-0.353-0.213-0.571-0.213c-0.492,0-0.892,0.4-0.892,0.892
			c0,0.244,0.099,0.466,0.259,0.627l-0.607,0.623h-0.246v0.086h0.163l-0.187,0.192v-10.21H54.332L54.332,123.666z M52.764,132.348
			c0-0.303,0.246-0.55,0.55-0.55s0.55,0.246,0.55,0.55c0,0.303-0.246,0.55-0.55,0.55S52.764,132.652,52.764,132.348z
			 M54.332,136.167h-2.504v0.086h2.504v2.269h-2.528v-4.156l0.665-0.682h1.864V136.167z M52.551,133.598l0.417-0.428
			c0.106,0.045,0.223,0.07,0.346,0.07c0.492,0,0.892-0.4,0.892-0.892c0-0.144-0.038-0.278-0.098-0.399l0.224-0.325v1.973
			L52.551,133.598L52.551,133.598z M56.9,138.522h-2.483v-2.269H56.9V138.522z M56.9,136.167h-2.483v-2.483H56.9V136.167z
			 M56.9,133.598h-2.483v-2.097l0.267-0.386H56.9V133.598z M54.743,131.03l1.716-2.483h0.073c0.108,0.078,0.233,0.131,0.369,0.154
			v2.329H54.743z M59.469,138.522h-2.483v-2.269h2.483V138.522z M59.469,136.167h-2.483v-2.483h2.483V136.167z M59.469,133.598
			h-2.483v-2.483h2.483V133.598z M56.986,131.03v-2.32c0.022,0.002,0.043,0.007,0.065,0.007c0.194,0,0.373-0.064,0.519-0.17h0.132
			l1.767,1.784v0.699H56.986z M62.038,138.522h-2.483v-2.269h2.483V138.522z M62.038,136.167h-2.483v-2.483h2.483V136.167z
			 M59.555,133.598v-2.483h0.692l0.108,0.109c-0.141,0.158-0.229,0.363-0.229,0.591c0,0.492,0.4,0.892,0.892,0.892
			c0.492,0,0.892-0.4,0.892-0.892c0-0.032-0.006-0.061-0.009-0.092l0.138-0.099v1.975H59.555z M64.607,138.522h-2.483v-2.269h2.483
			V138.522z M64.607,136.167h-2.483v-2.483h2.483V136.167z M64.607,133.598h-2.483v-2.036l0.625-0.447h1.858V133.598z
			 M62.869,131.03l1.504-1.076c0.071,0.058,0.148,0.106,0.235,0.14v0.936H62.869z M67.176,138.522h-2.483v-2.269h2.483V138.522z
			 M67.176,136.167h-2.483v-2.483h2.483V136.167z M67.176,133.598h-2.483v-2.483h2.483V133.598z M64.693,131.03v-0.909
			c0.077,0.022,0.157,0.037,0.24,0.037c0.25,0,0.476-0.104,0.638-0.27l1.605,1.016v0.127H64.693z M67.261,138.522v-2.269h2.11
			v-0.086h-2.11v-2.483h2.11v-0.086h-2.11v-2.483h0.25l0.472,0.298c-0.061,0.121-0.1,0.256-0.1,0.401c0,0.492,0.4,0.892,0.892,0.892
			c0.241,0,0.459-0.097,0.62-0.253v6.068H67.261z"/>
		<path fill="#F9F9F9" d="M70.348,112.949H51.042c-0.874,0-1.589,0.714-1.589,1.588v37.679c0,0.874,0.715,1.588,1.589,1.588h19.306
			c0.874,0,1.589-0.714,1.589-1.588v-37.679C71.937,113.663,71.222,112.949,70.348,112.949z M70.532,148.747H50.859v-31.436h19.673
			V148.747z"/>
		<circle fill="#EDEDEF" cx="58.384" cy="115.264" r="0.399"/>
		<g>
			<path fill="#EDEDEF" d="M63.406,115.264c0,0.172-0.254,0.312-0.565,0.312h-2.643c-0.311,0-0.565-0.14-0.565-0.312
				s0.254-0.312,0.565-0.312h2.643C63.152,114.953,63.406,115.093,63.406,115.264z"/>
		</g>
		<circle fill="#EDEDEF" cx="60.695" cy="151.306" r="1.353"/>
		<path opacity="0.1" fill="#FFFFFF" d="M51.042,112.949c-0.874,0-1.589,0.714-1.589,1.588v37.679c0,0.874,0.715,1.588,1.589,1.588
			h1.41l16.751-40.856H51.042z"/>
	</g>
</g>
</svg>
